<svg width="30" height="30" viewBox="0 0 57 57" fill="none" xmlns="http://www.w3.org/2000/svg">
<path d="M3.00702 28.7452H0.736369H3.00702ZM12.5863 28.7452H10.3157H12.5863ZM28.5518 44.7107V46.9813V44.7107ZM44.5173 28.7452H46.788H44.5173ZM28.5518 0.929698C21.1747 0.929698 14.0997 3.86025 8.88333 9.07666L12.0945 12.2878C16.4593 7.92309 22.3791 5.471 28.5518 5.471V0.929698ZM8.88333 9.07666C3.66692 14.2931 0.736369 21.368 0.736369 28.7452H5.27767C5.27767 22.5725 7.72976 16.6526 12.0945 12.2878L8.88333 9.07666ZM0.736369 28.7452C0.736369 36.1223 3.66692 43.1973 8.88333 48.4137L12.0945 45.2025C7.72976 40.8377 5.27767 34.9179 5.27767 28.7452H0.736369ZM8.88333 48.4137C14.0997 53.6301 21.1747 56.5606 28.5518 56.5606V52.0193C22.3791 52.0193 16.4593 49.5672 12.0945 45.2025L8.88333 48.4137ZM28.5518 56.5606C35.929 56.5606 43.0039 53.6301 48.2203 48.4137L45.0092 45.2025C40.6444 49.5672 34.7245 52.0193 28.5518 52.0193V56.5606ZM48.2203 48.4137C53.4368 43.1973 56.3673 36.1223 56.3673 28.7452H51.826C51.826 34.9179 49.3739 40.8377 45.0092 45.2025L48.2203 48.4137ZM56.3673 28.7452C56.3673 21.368 53.4368 14.2931 48.2203 9.07666L45.0092 12.2878C49.3739 16.6526 51.826 22.5725 51.826 28.7452H56.3673ZM48.2203 9.07666C43.0039 3.86025 35.929 0.929698 28.5518 0.929698V5.471C34.7245 5.471 40.6444 7.92309 45.0092 12.2878L48.2203 9.07666ZM28.5518 10.509C23.7153 10.509 19.0769 12.4303 15.6569 15.8503L18.8681 19.0614C21.4364 16.4932 24.9197 15.0503 28.5518 15.0503V10.509ZM15.6569 15.8503C12.237 19.2702 10.3157 23.9086 10.3157 28.7452H14.857C14.857 25.1131 16.2998 21.6297 18.8681 19.0614L15.6569 15.8503ZM10.3157 28.7452C10.3157 33.5817 12.237 38.2201 15.6569 41.6401L18.8681 38.4289C16.2998 35.8606 14.857 32.3773 14.857 28.7452H10.3157ZM15.6569 41.6401C19.0769 45.06 23.7153 46.9813 28.5518 46.9813V42.44C24.9197 42.44 21.4364 40.9972 18.8681 38.4289L15.6569 41.6401ZM28.5518 46.9813C33.3884 46.9813 38.0268 45.06 41.4468 41.6401L38.2356 38.4289C35.6673 40.9972 32.1839 42.44 28.5518 42.44V46.9813ZM41.4468 41.6401C44.8667 38.2201 46.788 33.5817 46.788 28.7452H42.2467C42.2467 32.3773 40.8038 35.8606 38.2356 38.4289L41.4468 41.6401ZM46.788 28.7452C46.788 23.9086 44.8667 19.2702 41.4468 15.8503L38.2356 19.0614C40.8038 21.6297 42.2467 25.1131 42.2467 28.7452H46.788ZM41.4468 15.8503C38.0268 12.4303 33.3884 10.509 28.5518 10.509V15.0503C32.1839 15.0503 35.6673 16.4932 38.2356 19.0614L41.4468 15.8503ZM17.5541 14.1997C11.8334 18.7762 8.52732 24.3658 7.93017 30.9344C7.34058 37.42 9.42082 44.546 13.808 52.2234L17.7509 49.9703C13.6231 42.7467 11.9781 36.568 12.4528 31.3456C12.92 26.2062 15.468 21.6843 20.391 17.7458L17.5541 14.1997ZM39.5496 43.2907C45.2607 38.7218 48.5747 33.193 49.1733 26.6725C49.764 20.2381 47.6792 13.1672 43.2957 5.49607L39.3528 7.74919C43.4842 14.9792 45.1247 21.0983 44.651 26.2573C44.1853 31.3304 41.6453 35.7984 36.7127 39.7445L39.5496 43.2907Z" fill="white"/>
</svg>
