<svg width="25" height="25" viewBox="0 0 26 25" fill="none" xmlns="http://www.w3.org/2000/svg">
<path fill-rule="evenodd" clip-rule="evenodd" d="M12.9844 0.289062C16.3285 0.289062 19.0394 3.00001 19.0394 6.34413C19.0394 9.68825 16.3285 12.3992 12.9844 12.3992C9.64023 12.3992 6.92929 9.68825 6.92929 6.34413C6.92929 3.00001 9.64023 0.289062 12.9844 0.289062ZM12.9843 3.31641C11.3123 3.31641 9.95681 4.67188 9.95681 6.34395C9.95681 8.01601 11.3123 9.37148 12.9843 9.37148C14.6564 9.37148 16.0119 8.01601 16.0119 6.34395C16.0119 4.67188 14.6564 3.31641 12.9843 3.31641ZM12.9843 13.913C17.0261 13.913 25.0945 15.9263 25.0945 19.968V24.5093H0.874207V19.968C0.874207 15.9263 8.94258 13.913 12.9843 13.913ZM12.9843 16.789C8.48844 16.789 3.75035 18.9991 3.75035 19.9679V21.633H22.2183V19.9679C22.2183 18.9991 17.4802 16.789 12.9843 16.789Z" fill="white"/>
</svg>
